# xmcd
#
# Track frame offsets:
#	150
#	16156
#	33290
#	48932
#	65664
#	80071
#	97477
#	114058
#	130715
#	149246
#	168453
#	183789
#	203774
#
# Disc length: 2997 seconds
#
# Revision: 0
# Processed by: cddbd v1.5.1PL0 Copyright (c) Steve Scherf et al.
# Submitted via: audiograbber 1.82.02
#
DISCID=b30bb30d
DTITLE=Борис Моисеев - Чужой
DYEAR=2002
DGENRE=Dance, Pop
TTITLE0=Падший ангел
TTITLE1=Когда забудешь ты меня (feat. Nilda Fernandes)
TTITLE2=Гори в пол-огня
TTITLE3=Стрекоза
TTITLE4=Человек амфибия
TTITLE5=Чужой
TTITLE6=Девчонки
TTITLE7=Стаханов
TTITLE8=Огонек
TTITLE9=Не ходите мальчики в Африку гулять
TTITLE10=Плакучие березы
TTITLE11=Надежда умирает последней
TTITLE12=И день и ночь (feat. Nilda Fernandes) (remix)
EXTD=
EXTT0=
EXTT1=
EXTT2=
EXTT3=
EXTT4=
EXTT5=
EXTT6=
EXTT7=
EXTT8=
EXTT9=
EXTT10=
EXTT11=
EXTT12=
PLAYORDER=
